<svg id="visual" viewBox="0 0 1920 1080" width="1920" height="1080" xmlns="http://www.w3.org/2000/svg" xmlns:xlink="http://www.w3.org/1999/xlink" version="1.1"><rect x="0" y="0" width="1920" height="1080" fill="#222222"></rect><path d="M0 749L45.7 755.2C91.3 761.3 182.7 773.7 274.2 754.7C365.7 735.7 457.3 685.3 548.8 667.8C640.3 650.3 731.7 665.7 823 692.3C914.3 719 1005.7 757 1097 758.2C1188.3 759.3 1279.7 723.7 1371.2 711.8C1462.7 700 1554.3 712 1645.8 716.7C1737.3 721.3 1828.7 718.7 1874.3 717.3L1920 716L1920 1081L1874.3 1081C1828.7 1081 1737.3 1081 1645.8 1081C1554.3 1081 1462.7 1081 1371.2 1081C1279.7 1081 1188.3 1081 1097 1081C1005.7 1081 914.3 1081 823 1081C731.7 1081 640.3 1081 548.8 1081C457.3 1081 365.7 1081 274.2 1081C182.7 1081 91.3 1081 45.7 1081L0 1081Z" fill="#1c2541"></path><path d="M0 767L45.7 762C91.3 757 182.7 747 274.2 762.7C365.7 778.3 457.3 819.7 548.8 822.8C640.3 826 731.7 791 823 789C914.3 787 1005.7 818 1097 833C1188.3 848 1279.7 847 1371.2 827.7C1462.7 808.3 1554.3 770.7 1645.8 764C1737.3 757.3 1828.7 781.7 1874.3 793.8L1920 806L1920 1081L1874.3 1081C1828.7 1081 1737.3 1081 1645.8 1081C1554.3 1081 1462.7 1081 1371.2 1081C1279.7 1081 1188.3 1081 1097 1081C1005.7 1081 914.3 1081 823 1081C731.7 1081 640.3 1081 548.8 1081C457.3 1081 365.7 1081 274.2 1081C182.7 1081 91.3 1081 45.7 1081L0 1081Z" fill="#1a4e6f"></path><path d="M0 840L45.7 840.2C91.3 840.3 182.7 840.7 274.2 839.5C365.7 838.3 457.3 835.7 548.8 829.2C640.3 822.7 731.7 812.3 823 814.3C914.3 816.3 1005.7 830.7 1097 847.8C1188.3 865 1279.7 885 1371.2 892.8C1462.7 900.7 1554.3 896.3 1645.8 882C1737.3 867.7 1828.7 843.3 1874.3 831.2L1920 819L1920 1081L1874.3 1081C1828.7 1081 1737.3 1081 1645.8 1081C1554.3 1081 1462.7 1081 1371.2 1081C1279.7 1081 1188.3 1081 1097 1081C1005.7 1081 914.3 1081 823 1081C731.7 1081 640.3 1081 548.8 1081C457.3 1081 365.7 1081 274.2 1081C182.7 1081 91.3 1081 45.7 1081L0 1081Z" fill="#067c96"></path><path d="M0 924L45.7 931.8C91.3 939.7 182.7 955.3 274.2 948.7C365.7 942 457.3 913 548.8 906.5C640.3 900 731.7 916 823 922.5C914.3 929 1005.7 926 1097 923.3C1188.3 920.7 1279.7 918.3 1371.2 925.2C1462.7 932 1554.3 948 1645.8 949C1737.3 950 1828.7 936 1874.3 929L1920 922L1920 1081L1874.3 1081C1828.7 1081 1737.3 1081 1645.8 1081C1554.3 1081 1462.7 1081 1371.2 1081C1279.7 1081 1188.3 1081 1097 1081C1005.7 1081 914.3 1081 823 1081C731.7 1081 640.3 1081 548.8 1081C457.3 1081 365.7 1081 274.2 1081C182.7 1081 91.3 1081 45.7 1081L0 1081Z" fill="#2eacb0"></path><path d="M0 961L45.7 968.3C91.3 975.7 182.7 990.3 274.2 989.5C365.7 988.7 457.3 972.3 548.8 967.3C640.3 962.3 731.7 968.7 823 971.2C914.3 973.7 1005.7 972.3 1097 981.2C1188.3 990 1279.7 1009 1371.2 1008.7C1462.7 1008.3 1554.3 988.7 1645.8 983.7C1737.3 978.7 1828.7 988.3 1874.3 993.2L1920 998L1920 1081L1874.3 1081C1828.7 1081 1737.3 1081 1645.8 1081C1554.3 1081 1462.7 1081 1371.2 1081C1279.7 1081 1188.3 1081 1097 1081C1005.7 1081 914.3 1081 823 1081C731.7 1081 640.3 1081 548.8 1081C457.3 1081 365.7 1081 274.2 1081C182.7 1081 91.3 1081 45.7 1081L0 1081Z" fill="#72dbbc"></path></svg>